<mxfile host="app.diagrams.net" agent="Mozilla/5.0 (X11; Ubuntu; Linux x86_64; rv:131.0) Gecko/20100101 Firefox/131.0" version="24.8.0">
  <diagram id="R2lEEEUBdFMjLlhIrx00" name="Page-1">
    <mxGraphModel dx="659" dy="838" grid="1" gridSize="10" guides="1" tooltips="1" connect="1" arrows="1" fold="1" page="1" pageScale="1" pageWidth="850" pageHeight="1100" math="0" shadow="0" extFonts="Permanent Marker^https://fonts.googleapis.com/css?family=Permanent+Marker">
      <root>
        <mxCell id="0" />
        <mxCell id="1" parent="0" />
        <mxCell id="m0e2eTWhc-OYo3EOmF7m-17" value="Clients" style="swimlane;fontStyle=0;childLayout=stackLayout;horizontal=1;startSize=30;horizontalStack=0;resizeParent=1;resizeParentMax=0;resizeLast=0;collapsible=1;marginBottom=0;whiteSpace=wrap;html=1;" parent="1" vertex="1">
          <mxGeometry x="1005" y="125" width="140" height="300" as="geometry" />
        </mxCell>
        <mxCell id="m0e2eTWhc-OYo3EOmF7m-18" value="&lt;b&gt;&lt;u&gt;num_tel&lt;/u&gt;&lt;/b&gt;" style="text;strokeColor=none;fillColor=none;align=left;verticalAlign=middle;spacingLeft=4;spacingRight=4;overflow=hidden;points=[[0,0.5],[1,0.5]];portConstraint=eastwest;rotatable=0;whiteSpace=wrap;html=1;" parent="m0e2eTWhc-OYo3EOmF7m-17" vertex="1">
          <mxGeometry y="30" width="140" height="30" as="geometry" />
        </mxCell>
        <mxCell id="m0e2eTWhc-OYo3EOmF7m-19" value="nom" style="text;strokeColor=none;fillColor=none;align=left;verticalAlign=middle;spacingLeft=4;spacingRight=4;overflow=hidden;points=[[0,0.5],[1,0.5]];portConstraint=eastwest;rotatable=0;whiteSpace=wrap;html=1;" parent="m0e2eTWhc-OYo3EOmF7m-17" vertex="1">
          <mxGeometry y="60" width="140" height="30" as="geometry" />
        </mxCell>
        <mxCell id="m0e2eTWhc-OYo3EOmF7m-20" value="prenom" style="text;strokeColor=none;fillColor=none;align=left;verticalAlign=middle;spacingLeft=4;spacingRight=4;overflow=hidden;points=[[0,0.5],[1,0.5]];portConstraint=eastwest;rotatable=0;whiteSpace=wrap;html=1;" parent="m0e2eTWhc-OYo3EOmF7m-17" vertex="1">
          <mxGeometry y="90" width="140" height="30" as="geometry" />
        </mxCell>
        <mxCell id="2p2nQEUJpSd8RLrAnUkW-20" value="password" style="text;strokeColor=none;fillColor=none;align=left;verticalAlign=middle;spacingLeft=4;spacingRight=4;overflow=hidden;points=[[0,0.5],[1,0.5]];portConstraint=eastwest;rotatable=0;whiteSpace=wrap;html=1;" vertex="1" parent="m0e2eTWhc-OYo3EOmF7m-17">
          <mxGeometry y="120" width="140" height="30" as="geometry" />
        </mxCell>
        <mxCell id="m0e2eTWhc-OYo3EOmF7m-21" value="adresse" style="text;strokeColor=none;fillColor=none;align=left;verticalAlign=middle;spacingLeft=4;spacingRight=4;overflow=hidden;points=[[0,0.5],[1,0.5]];portConstraint=eastwest;rotatable=0;whiteSpace=wrap;html=1;" parent="m0e2eTWhc-OYo3EOmF7m-17" vertex="1">
          <mxGeometry y="150" width="140" height="30" as="geometry" />
        </mxCell>
        <mxCell id="m0e2eTWhc-OYo3EOmF7m-22" value="email" style="text;strokeColor=none;fillColor=none;align=left;verticalAlign=middle;spacingLeft=4;spacingRight=4;overflow=hidden;points=[[0,0.5],[1,0.5]];portConstraint=eastwest;rotatable=0;whiteSpace=wrap;html=1;" parent="m0e2eTWhc-OYo3EOmF7m-17" vertex="1">
          <mxGeometry y="180" width="140" height="30" as="geometry" />
        </mxCell>
        <mxCell id="m0e2eTWhc-OYo3EOmF7m-23" value="blacklist" style="text;strokeColor=none;fillColor=none;align=left;verticalAlign=middle;spacingLeft=4;spacingRight=4;overflow=hidden;points=[[0,0.5],[1,0.5]];portConstraint=eastwest;rotatable=0;whiteSpace=wrap;html=1;" parent="m0e2eTWhc-OYo3EOmF7m-17" vertex="1">
          <mxGeometry y="210" width="140" height="30" as="geometry" />
        </mxCell>
        <mxCell id="m0e2eTWhc-OYo3EOmF7m-24" value="pointsFidelite" style="text;strokeColor=none;fillColor=none;align=left;verticalAlign=middle;spacingLeft=4;spacingRight=4;overflow=hidden;points=[[0,0.5],[1,0.5]];portConstraint=eastwest;rotatable=0;whiteSpace=wrap;html=1;" parent="m0e2eTWhc-OYo3EOmF7m-17" vertex="1">
          <mxGeometry y="240" width="140" height="30" as="geometry" />
        </mxCell>
        <mxCell id="2p2nQEUJpSd8RLrAnUkW-14" value="prixPanier" style="text;strokeColor=none;fillColor=none;align=left;verticalAlign=middle;spacingLeft=4;spacingRight=4;overflow=hidden;points=[[0,0.5],[1,0.5]];portConstraint=eastwest;rotatable=0;whiteSpace=wrap;html=1;" vertex="1" parent="m0e2eTWhc-OYo3EOmF7m-17">
          <mxGeometry y="270" width="140" height="30" as="geometry" />
        </mxCell>
        <mxCell id="m0e2eTWhc-OYo3EOmF7m-25" value="Commandes" style="swimlane;fontStyle=0;childLayout=stackLayout;horizontal=1;startSize=30;horizontalStack=0;resizeParent=1;resizeParentMax=0;resizeLast=0;collapsible=1;marginBottom=0;whiteSpace=wrap;html=1;" parent="1" vertex="1">
          <mxGeometry x="1005" y="635" width="140" height="180" as="geometry" />
        </mxCell>
        <mxCell id="m0e2eTWhc-OYo3EOmF7m-26" value="&lt;b&gt;&lt;u&gt;id_commande&lt;/u&gt;&lt;/b&gt;" style="text;strokeColor=none;fillColor=none;align=left;verticalAlign=middle;spacingLeft=4;spacingRight=4;overflow=hidden;points=[[0,0.5],[1,0.5]];portConstraint=eastwest;rotatable=0;whiteSpace=wrap;html=1;" parent="m0e2eTWhc-OYo3EOmF7m-25" vertex="1">
          <mxGeometry y="30" width="140" height="30" as="geometry" />
        </mxCell>
        <mxCell id="2p2nQEUJpSd8RLrAnUkW-16" value="date" style="text;strokeColor=none;fillColor=none;align=left;verticalAlign=middle;spacingLeft=4;spacingRight=4;overflow=hidden;points=[[0,0.5],[1,0.5]];portConstraint=eastwest;rotatable=0;whiteSpace=wrap;html=1;" vertex="1" parent="m0e2eTWhc-OYo3EOmF7m-25">
          <mxGeometry y="60" width="140" height="30" as="geometry" />
        </mxCell>
        <mxCell id="2p2nQEUJpSd8RLrAnUkW-17" value="sur_place" style="text;strokeColor=none;fillColor=none;align=left;verticalAlign=middle;spacingLeft=4;spacingRight=4;overflow=hidden;points=[[0,0.5],[1,0.5]];portConstraint=eastwest;rotatable=0;whiteSpace=wrap;html=1;" vertex="1" parent="m0e2eTWhc-OYo3EOmF7m-25">
          <mxGeometry y="90" width="140" height="30" as="geometry" />
        </mxCell>
        <mxCell id="2p2nQEUJpSd8RLrAnUkW-18" value="num_table" style="text;strokeColor=none;fillColor=none;align=left;verticalAlign=middle;spacingLeft=4;spacingRight=4;overflow=hidden;points=[[0,0.5],[1,0.5]];portConstraint=eastwest;rotatable=0;whiteSpace=wrap;html=1;" vertex="1" parent="m0e2eTWhc-OYo3EOmF7m-25">
          <mxGeometry y="120" width="140" height="30" as="geometry" />
        </mxCell>
        <mxCell id="m0e2eTWhc-OYo3EOmF7m-28" value="etat" style="text;strokeColor=none;fillColor=none;align=left;verticalAlign=middle;spacingLeft=4;spacingRight=4;overflow=hidden;points=[[0,0.5],[1,0.5]];portConstraint=eastwest;rotatable=0;whiteSpace=wrap;html=1;" parent="m0e2eTWhc-OYo3EOmF7m-25" vertex="1">
          <mxGeometry y="150" width="140" height="30" as="geometry" />
        </mxCell>
        <mxCell id="m0e2eTWhc-OYo3EOmF7m-33" style="edgeStyle=orthogonalEdgeStyle;rounded=0;orthogonalLoop=1;jettySize=auto;html=1;endArrow=none;endFill=0;entryX=0.5;entryY=1;entryDx=0;entryDy=0;" parent="1" source="m0e2eTWhc-OYo3EOmF7m-25" target="m0e2eTWhc-OYo3EOmF7m-17" edge="1">
          <mxGeometry relative="1" as="geometry">
            <mxPoint x="1075" y="505" as="sourcePoint" />
            <mxPoint x="1045" y="435" as="targetPoint" />
          </mxGeometry>
        </mxCell>
        <mxCell id="m0e2eTWhc-OYo3EOmF7m-36" value="0,n" style="text;html=1;align=center;verticalAlign=middle;whiteSpace=wrap;rounded=0;" parent="1" vertex="1">
          <mxGeometry x="1075" y="425" width="60" height="30" as="geometry" />
        </mxCell>
        <mxCell id="m0e2eTWhc-OYo3EOmF7m-37" value="1,1" style="text;html=1;align=center;verticalAlign=middle;whiteSpace=wrap;rounded=0;" parent="1" vertex="1">
          <mxGeometry x="1075" y="605" width="60" height="30" as="geometry" />
        </mxCell>
        <mxCell id="m0e2eTWhc-OYo3EOmF7m-74" style="edgeStyle=orthogonalEdgeStyle;rounded=0;orthogonalLoop=1;jettySize=auto;html=1;exitX=0.5;exitY=0;exitDx=0;exitDy=0;endArrow=none;endFill=0;" parent="1" source="m0e2eTWhc-OYo3EOmF7m-69" target="m0e2eTWhc-OYo3EOmF7m-47" edge="1">
          <mxGeometry relative="1" as="geometry" />
        </mxCell>
        <mxCell id="m0e2eTWhc-OYo3EOmF7m-38" value="Plats" style="swimlane;fontStyle=0;childLayout=stackLayout;horizontal=1;startSize=30;horizontalStack=0;resizeParent=1;resizeParentMax=0;resizeLast=0;collapsible=1;marginBottom=0;whiteSpace=wrap;html=1;" parent="1" vertex="1">
          <mxGeometry x="1465" y="665" width="140" height="210" as="geometry" />
        </mxCell>
        <mxCell id="m0e2eTWhc-OYo3EOmF7m-39" value="&lt;b&gt;&lt;u&gt;nom&lt;/u&gt;&lt;/b&gt;" style="text;strokeColor=none;fillColor=none;align=left;verticalAlign=middle;spacingLeft=4;spacingRight=4;overflow=hidden;points=[[0,0.5],[1,0.5]];portConstraint=eastwest;rotatable=0;whiteSpace=wrap;html=1;" parent="m0e2eTWhc-OYo3EOmF7m-38" vertex="1">
          <mxGeometry y="30" width="140" height="30" as="geometry" />
        </mxCell>
        <mxCell id="m0e2eTWhc-OYo3EOmF7m-40" value="type" style="text;strokeColor=none;fillColor=none;align=left;verticalAlign=middle;spacingLeft=4;spacingRight=4;overflow=hidden;points=[[0,0.5],[1,0.5]];portConstraint=eastwest;rotatable=0;whiteSpace=wrap;html=1;" parent="m0e2eTWhc-OYo3EOmF7m-38" vertex="1">
          <mxGeometry y="60" width="140" height="30" as="geometry" />
        </mxCell>
        <mxCell id="m0e2eTWhc-OYo3EOmF7m-41" value="quantiteStock" style="text;strokeColor=none;fillColor=none;align=left;verticalAlign=middle;spacingLeft=4;spacingRight=4;overflow=hidden;points=[[0,0.5],[1,0.5]];portConstraint=eastwest;rotatable=0;whiteSpace=wrap;html=1;" parent="m0e2eTWhc-OYo3EOmF7m-38" vertex="1">
          <mxGeometry y="90" width="140" height="30" as="geometry" />
        </mxCell>
        <mxCell id="m0e2eTWhc-OYo3EOmF7m-43" value="prix" style="text;strokeColor=none;fillColor=none;align=left;verticalAlign=middle;spacingLeft=4;spacingRight=4;overflow=hidden;points=[[0,0.5],[1,0.5]];portConstraint=eastwest;rotatable=0;whiteSpace=wrap;html=1;" parent="m0e2eTWhc-OYo3EOmF7m-38" vertex="1">
          <mxGeometry y="120" width="140" height="30" as="geometry" />
        </mxCell>
        <mxCell id="m0e2eTWhc-OYo3EOmF7m-44" value="quantitePromo" style="text;strokeColor=none;fillColor=none;align=left;verticalAlign=middle;spacingLeft=4;spacingRight=4;overflow=hidden;points=[[0,0.5],[1,0.5]];portConstraint=eastwest;rotatable=0;whiteSpace=wrap;html=1;" parent="m0e2eTWhc-OYo3EOmF7m-38" vertex="1">
          <mxGeometry y="150" width="140" height="30" as="geometry" />
        </mxCell>
        <mxCell id="m0e2eTWhc-OYo3EOmF7m-45" value="prixReduc" style="text;strokeColor=none;fillColor=none;align=left;verticalAlign=middle;spacingLeft=4;spacingRight=4;overflow=hidden;points=[[0,0.5],[1,0.5]];portConstraint=eastwest;rotatable=0;whiteSpace=wrap;html=1;" parent="m0e2eTWhc-OYo3EOmF7m-38" vertex="1">
          <mxGeometry y="180" width="140" height="30" as="geometry" />
        </mxCell>
        <mxCell id="m0e2eTWhc-OYo3EOmF7m-47" value="Formule" style="swimlane;fontStyle=0;childLayout=stackLayout;horizontal=1;startSize=30;horizontalStack=0;resizeParent=1;resizeParentMax=0;resizeLast=0;collapsible=1;marginBottom=0;whiteSpace=wrap;html=1;" parent="1" vertex="1">
          <mxGeometry x="1465" y="185" width="140" height="90" as="geometry" />
        </mxCell>
        <mxCell id="m0e2eTWhc-OYo3EOmF7m-48" value="id_formule" style="text;strokeColor=none;fillColor=none;align=left;verticalAlign=middle;spacingLeft=4;spacingRight=4;overflow=hidden;points=[[0,0.5],[1,0.5]];portConstraint=eastwest;rotatable=0;whiteSpace=wrap;html=1;" parent="m0e2eTWhc-OYo3EOmF7m-47" vertex="1">
          <mxGeometry y="30" width="140" height="30" as="geometry" />
        </mxCell>
        <mxCell id="2p2nQEUJpSd8RLrAnUkW-15" value="libelle_formule" style="text;strokeColor=none;fillColor=none;align=left;verticalAlign=middle;spacingLeft=4;spacingRight=4;overflow=hidden;points=[[0,0.5],[1,0.5]];portConstraint=eastwest;rotatable=0;whiteSpace=wrap;html=1;" vertex="1" parent="m0e2eTWhc-OYo3EOmF7m-47">
          <mxGeometry y="60" width="140" height="30" as="geometry" />
        </mxCell>
        <mxCell id="m0e2eTWhc-OYo3EOmF7m-60" value="" style="edgeStyle=orthogonalEdgeStyle;rounded=0;orthogonalLoop=1;jettySize=auto;html=1;exitX=1;exitY=0.5;exitDx=0;exitDy=0;endArrow=none;endFill=0;" parent="1" source="m0e2eTWhc-OYo3EOmF7m-72" target="m0e2eTWhc-OYo3EOmF7m-40" edge="1">
          <mxGeometry relative="1" as="geometry">
            <mxPoint x="1145" y="740" as="sourcePoint" />
            <mxPoint x="1234.9999999999995" y="740" as="targetPoint" />
          </mxGeometry>
        </mxCell>
        <mxCell id="m0e2eTWhc-OYo3EOmF7m-61" value="1,n" style="text;html=1;align=center;verticalAlign=middle;whiteSpace=wrap;rounded=0;" parent="1" vertex="1">
          <mxGeometry x="1145" y="710" width="60" height="30" as="geometry" />
        </mxCell>
        <mxCell id="m0e2eTWhc-OYo3EOmF7m-62" value="0,n" style="text;html=1;align=center;verticalAlign=middle;whiteSpace=wrap;rounded=0;" parent="1" vertex="1">
          <mxGeometry x="1405" y="710" width="60" height="30" as="geometry" />
        </mxCell>
        <mxCell id="m0e2eTWhc-OYo3EOmF7m-65" value="1,3" style="text;html=1;align=center;verticalAlign=middle;whiteSpace=wrap;rounded=0;" parent="1" vertex="1">
          <mxGeometry x="1475" y="275" width="60" height="30" as="geometry" />
        </mxCell>
        <mxCell id="m0e2eTWhc-OYo3EOmF7m-66" value="0,n" style="text;html=1;align=center;verticalAlign=middle;whiteSpace=wrap;rounded=0;" parent="1" vertex="1">
          <mxGeometry x="1475" y="635" width="60" height="30" as="geometry" />
        </mxCell>
        <mxCell id="m0e2eTWhc-OYo3EOmF7m-71" value="PASSER" style="rhombus;whiteSpace=wrap;html=1;" parent="1" vertex="1">
          <mxGeometry x="1025" y="505" width="100" height="80" as="geometry" />
        </mxCell>
        <mxCell id="m0e2eTWhc-OYo3EOmF7m-73" value="" style="edgeStyle=orthogonalEdgeStyle;rounded=0;orthogonalLoop=1;jettySize=auto;html=1;exitX=1;exitY=0.5;exitDx=0;exitDy=0;endArrow=none;endFill=0;" parent="1" target="m0e2eTWhc-OYo3EOmF7m-72" edge="1">
          <mxGeometry relative="1" as="geometry">
            <mxPoint x="1145" y="740" as="sourcePoint" />
            <mxPoint x="1465" y="740" as="targetPoint" />
          </mxGeometry>
        </mxCell>
        <mxCell id="m0e2eTWhc-OYo3EOmF7m-72" value="CONSTITUER" style="rhombus;whiteSpace=wrap;html=1;" parent="1" vertex="1">
          <mxGeometry x="1255" y="700" width="100" height="80" as="geometry" />
        </mxCell>
        <mxCell id="m0e2eTWhc-OYo3EOmF7m-75" value="" style="edgeStyle=orthogonalEdgeStyle;rounded=0;orthogonalLoop=1;jettySize=auto;html=1;exitX=0.5;exitY=0;exitDx=0;exitDy=0;endArrow=none;endFill=0;" parent="1" source="m0e2eTWhc-OYo3EOmF7m-38" target="m0e2eTWhc-OYo3EOmF7m-69" edge="1">
          <mxGeometry relative="1" as="geometry">
            <mxPoint x="1535" y="665" as="sourcePoint" />
            <mxPoint x="1535" y="245" as="targetPoint" />
          </mxGeometry>
        </mxCell>
        <mxCell id="m0e2eTWhc-OYo3EOmF7m-69" value="CONTENIR" style="rhombus;whiteSpace=wrap;html=1;movableLabel=1;" parent="1" vertex="1">
          <mxGeometry x="1455" y="375" width="160" height="160" as="geometry">
            <mxPoint x="1" y="-28" as="offset" />
          </mxGeometry>
        </mxCell>
        <mxCell id="m0e2eTWhc-OYo3EOmF7m-85" style="edgeStyle=orthogonalEdgeStyle;rounded=0;orthogonalLoop=1;jettySize=auto;html=1;exitX=0;exitY=0.5;exitDx=0;exitDy=0;entryX=1;entryY=0.5;entryDx=0;entryDy=0;endArrow=none;endFill=0;" parent="1" source="m0e2eTWhc-OYo3EOmF7m-69" target="m0e2eTWhc-OYo3EOmF7m-69" edge="1">
          <mxGeometry relative="1" as="geometry">
            <Array as="points">
              <mxPoint x="1535" y="455" />
              <mxPoint x="1535" y="455" />
            </Array>
          </mxGeometry>
        </mxCell>
        <mxCell id="m0e2eTWhc-OYo3EOmF7m-86" value="&lt;div&gt;platEntree&lt;/div&gt;&lt;div&gt;platPrincipal&lt;/div&gt;&lt;div&gt;platDessert&lt;br&gt;&lt;/div&gt;" style="text;html=1;align=left;verticalAlign=middle;whiteSpace=wrap;rounded=0;" parent="1" vertex="1">
          <mxGeometry x="1505" y="465" width="60" height="30" as="geometry" />
        </mxCell>
        <mxCell id="2p2nQEUJpSd8RLrAnUkW-21" value="&lt;div&gt;etat = panier, en_livraison, non_payee, paye&lt;/div&gt;&lt;div&gt;Possibilité d&#39;avoir plusieurs paniers&lt;/div&gt;&lt;div&gt;(ou faire une fonction get_panier(id_client)&lt;br&gt;&lt;/div&gt;" style="shape=note;whiteSpace=wrap;html=1;backgroundOutline=1;darkOpacity=0.05;" vertex="1" parent="1">
          <mxGeometry x="935" y="875" width="250" height="100" as="geometry" />
        </mxCell>
        <mxCell id="2p2nQEUJpSd8RLrAnUkW-23" value="" style="endArrow=none;dashed=1;html=1;rounded=0;" edge="1" parent="1" source="2p2nQEUJpSd8RLrAnUkW-21" target="m0e2eTWhc-OYo3EOmF7m-28">
          <mxGeometry width="50" height="50" relative="1" as="geometry">
            <mxPoint x="1245" y="675" as="sourcePoint" />
            <mxPoint x="1295" y="625" as="targetPoint" />
          </mxGeometry>
        </mxCell>
      </root>
    </mxGraphModel>
  </diagram>
</mxfile>
